<svg xmlns="http://www.w3.org/2000/svg" viewBox="0 0 180 56" fill="none">
  <!-- Google G icon -->
  <g transform="translate(0, 4)">
    <path d="M24 24C24 17.373 18.627 12 12 12C5.373 12 0 17.373 0 24C0 30.627 5.373 36 12 36C18.627 36 24 30.627 24 24Z" fill="#4285F4"/>
    <path d="M24 24H12V27.5H20.5C19.8 30.5 17.2 32.5 14 32.5C9.856 32.5 6.5 29.144 6.5 25C6.5 20.856 9.856 17.5 14 17.5C15.9 17.5 17.6 18.2 18.9 19.4L21.4 16.9C19.5 15.1 17 14 14 14C8.477 14 4 18.477 4 24C4 29.523 8.477 34 14 34C19.523 34 24 29.523 24 24Z" fill="white"/>
    <path d="M14 17.5C15.9 17.5 17.6 18.2 18.9 19.4L21.4 16.9C19.5 15.1 17 14 14 14V17.5Z" fill="#EA4335"/>
    <path d="M4 24C4 21.8 4.7 19.8 5.9 18.2L3.4 15.7C1.9 17.9 1 20.9 1 24C1 27.1 1.9 30.1 3.4 32.3L5.9 29.8C4.7 28.2 4 26.2 4 24Z" fill="#FBBC05"/>
    <path d="M14 34C17.2 34 19.8 33 21.7 31.2L19.2 28.7C18 29.7 16.1 30.5 14 30.5V34Z" fill="#34A853"/>
  </g>
  <!-- "Google" text -->
  <text x="30" y="20" font-family="Arial, sans-serif" font-size="15" font-weight="700" fill="#4285F4">G</text>
  <text x="40" y="20" font-family="Arial, sans-serif" font-size="15" font-weight="700" fill="#EA4335">o</text>
  <text x="50" y="20" font-family="Arial, sans-serif" font-size="15" font-weight="700" fill="#FBBC05">o</text>
  <text x="60" y="20" font-family="Arial, sans-serif" font-size="15" font-weight="700" fill="#4285F4">g</text>
  <text x="70" y="20" font-family="Arial, sans-serif" font-size="15" font-weight="700" fill="#34A853">l</text>
  <text x="76" y="20" font-family="Arial, sans-serif" font-size="15" font-weight="700" fill="#EA4335">e</text>
  <!-- "Partner" text -->
  <text x="30" y="36" font-family="Arial, sans-serif" font-size="12" fill="#5F6368" letter-spacing="1">Partner</text>
</svg>
